#tb 0: 33369/500000
0,          0,          0,        1,    65712, 0x917e0076
0,          1,          1,        1,    65712, 0xfe76fd1f
0,          2,          2,        1,    65712, 0xd85820ee
0,          3,          3,        1,    65712, 0x1b410f6e
0,          4,          4,        1,    65712, 0x53c50436
0,          5,          5,        1,    65712, 0xa191044d
0,          6,          6,        1,    65712, 0xcf02ff1f
0,          7,          7,        1,    65712, 0xc2abf85f
0,          8,          8,        1,    65712, 0xe273087e
0,          9,          9,        1,    65712, 0x087d0936
0,         10,         10,        1,    65712, 0x4e4f2e96
0,         11,         11,        1,    65712, 0x91b51896
0,         12,         12,        1,    65712, 0x2798450e
0,         13,         13,        1,    65712, 0x9fea1d06
0,         14,         14,        1,    65712, 0xc64a2506
0,         15,         15,        1,    65712, 0x0551fe07
0,         16,         16,        1,    65712, 0xc64a042e
0,         17,         17,        1,    65712, 0xf3680dc6
0,         18,         18,        1,    65712, 0x2ea5356e
0,         19,         19,        1,    65712, 0x0315ed3f
0,         20,         20,        1,    65712, 0xc1d1f917
0,         21,         21,        1,    65712, 0xc0f6e607
0,         22,         22,        1,    65712, 0x5b0a092e
0,         23,         23,        1,    65712, 0x1551f16f
0,         24,         24,        1,    65712, 0x8440ee87
0,         25,         25,        1,    65712, 0xf7581ae6
0,         26,         26,        1,    65712, 0xee67037e
0,         27,         27,        1,    65712, 0x4a212ca6
0,         28,         28,        1,    65712, 0x693e0aa6
0,         29,         29,        1,    65712, 0x13e31116
